{"title":"The Railway Man 2013 BRRip XviD AC3-SuperNova","uid":10108628,"size":1659448747,"categoryP":"video","categoryS":"movies","magnet":"?xt=urn:btih:6162422714258d06ac31f4fe822da0b4b2f7424a&amp;dn=The+Railway+Man+2013+BRRip+XviD+AC3-SuperNova&amp;tr=udp%3A%2F%2Ftracker.openbittorrent.com%3A80&amp;tr=udp%3A%2F%2Fopen.demonii.com%3A1337&amp;tr=udp%3A%2F%2Ftracker.coppersurfer.tk%3A6969&amp;tr=udp%3A%2F%2Fexodus.desync.com%3A6969","seeders":15,"leechers":0,"uploader":"Xetron","files":-1,"time":1399490005,"description":"General \n\n\n\nFormat : AVI \n\nFormat/Info : Audio Video Interleave \n\nFile size : 1.55 GiB \n\nDuration : 1h 56mn \n\nOverall bit rate : 1 902 Kbps \n\nWriting application : VirtualDubMod 1.5.10.3 | www.virtualdub-fr.org || (build 2550/release) \n\nWriting library : VirtualDubMod build 2550/release \n\n\n\nVideo \n\nID : 0 \n\nFormat : MPEG-4 Visual \n\nFormat profile : Advanced Simple@L5 \n\nFormat settings, BVOP : 1 \n\nFormat settings, QPel : No \n\nFormat settings, GMC : No warppoints \n\nFormat settings, Matrix : Default (H.263) \n\nCodec ID : XVID \n\nCodec ID/Hint : XviD \n\nDuration : 1h 56mn \n\nBit rate : 1 445 Kbps \n\nWidth : 720 pixels \n\nHeight : 304 pixels \n\nDisplay aspect ratio : 2.35:1 \n\nFrame rate : 23.976 fps \n\nColor space : YUV \n\nChroma subsampling : 4:2:0 \n\nBit depth : 8 bits \n\nScan type : Progressive \n\nCompression mode : Lossy \n\nBits/(Pixel*Frame) : 0.275 \n\nStream size : 1.17 GiB (76%) \n\nWriting library : XviD 73 \n\n\n\nAudio \n\nID : 1 \n\nFormat : AC-3 \n\nFormat/Info : Audio Coding 3 \n\nMode extension : CM (complete main) \n\nFormat settings, Endianness : Big \n\nCodec ID : 2000 \n\nDuration : 1h 56mn \n\nBit rate mode : Constant \n\nBit rate : 448 Kbps \n\nChannel(s) : 6 channels \n\nChannel positions : Front: L C R, Side: L R, LFE \n\nSampling rate : 48.0 KHz \n\nBit depth : 16 bits \n\nCompression mode : Lossy \n\nStream size : 373 MiB (24%) \n\nAlignment : Split accross interleaves \n\nInterleave, duration : 42 ms (1.00 video frame) \n\nInterleave, preload duration : 500 ms \n\n\nScreens - &lt;a href=&quot;\nhttp://i.imgur.com/NpDUeci.jpg&quot; rel=&quot;nofollow&quot; target=&quot;_NEW&quot;&gt;\nhttp://i.imgur.com/NpDUeci.jpg&lt;/a&gt; &lt;a href=&quot;\nhttp://i.imgur.com/fRSXMH3.jpg&quot; rel=&quot;nofollow&quot; target=&quot;_NEW&quot;&gt;\nhttp://i.imgur.com/fRSXMH3.jpg&lt;/a&gt; &lt;a href=&quot;\nhttp://i.imgur.com/QKEO6Bt.jpg&quot; rel=&quot;nofollow&quot; target=&quot;_NEW&quot;&gt;\nhttp://i.imgur.com/QKEO6Bt.jpg&lt;/a&gt; &lt;a href=&quot;\nhttp://i.imgur.com/JgLiZ4B.jpg&quot; rel=&quot;nofollow&quot; target=&quot;_NEW&quot;&gt;\nhttp://i.imgur.com/JgLiZ4B.jpg&lt;/a&gt;","torrent":{"xt":"urn:btih:6162422714258d06ac31f4fe822da0b4b2f7424a","amp;dn":"The+Railway+Man+2013+BRRip+XviD+AC3-SuperNova","amp;tr":["udp%3A%2F%2Ftracker.openbittorrent.com%3A80","udp%3A%2F%2Fopen.demonii.com%3A1337","udp%3A%2F%2Ftracker.coppersurfer.tk%3A6969","udp%3A%2F%2Fexodus.desync.com%3A6969"],"infoHash":"6162422714258d06ac31f4fe822da0b4b2f7424a","infoHashBuffer":{"type":"Buffer","data":[97,98,66,39,20,37,141,6,172,49,244,254,130,45,160,180,178,247,66,74]},"announce":[],"urlList":[]}}